<?xml version="1.0" encoding="iso-8859-1"?>
<!-- Uploaded to: SVG Repo, www.svgrepo.com, Generator: SVG Repo Mixer Tools -->
<svg fill="#000000" height="800px" width="800px" version="1.1" id="Layer_1" xmlns="http://www.w3.org/2000/svg" xmlns:xlink="http://www.w3.org/1999/xlink" 
	 viewBox="0 0 496 496" xml:space="preserve">
<g>
	<g>
		<path d="M464,352v-53.256c0-11.648-6.312-22.008-16-27.608V200v-8c8.824,0,16-7.176,16-16v-48c0-8.824-7.176-16-16-16V96
			c8.824,0,16-7.176,16-16V0H32v80c0,8.824,7.176,16,16,16v16c-8.824,0-16,7.176-16,16v48c0,8.824,7.176,16,16,16v8v71.128
			c-9.688,5.608-16,15.96-16,27.608V352H0v72h32v48c0,13.232,10.768,24,24,24h32c13.232,0,24-10.768,24-24v-48h272v48
			c0,13.232,10.768,24,24,24h32c13.232,0,24-10.768,24-24v-48h32v-72H464z M448.016,176H432v-48h16L448.016,176z M424,208h-24v-64
			h16v32c0,8.824,7.176,16,16,16v8C432,204.416,428.416,208,424,208z M432,222.528v43.232l-32-8.008V224h24
			C426.816,224,429.488,223.424,432,222.528z M416,128h-16v-24c0-2.816-0.576-5.488-1.472-8H432v16C423.176,112,416,119.176,416,128
			z M48,48h352V32H48V16h400v16h-32v16h32v32h-72h-8h-32V64h-16v16h-16V64h-16v16h-16V64h-16v16h-16V64h-16v16h-16V64h-16v16h-16V64
			h-16v16h-32h-8H48V48z M384,104v88H256V96h112h8C380.416,96,384,99.584,384,104z M240,96v96H112v-88c0-4.416,3.584-8,8-8h8H240z
			 M72,208c-4.416,0-8-3.584-8-8v-8c8.824,0,16-7.176,16-16v-32h16v64H72z M96,224v33.752l-32,8.008v-43.232
			c2.512,0.896,5.184,1.472,8,1.472H96z M80,128c0-8.824-7.176-16-16-16V96h33.472C96.576,98.512,96,101.184,96,104v24H80z M48,128
			h16v48H48V128z M48,304h24v16H48V304z M48,336h64c8.824,0,16-7.176,16-16v-16c0-8.824-7.176-16-16-16H52.2
			c2.072-2.272,4.76-4,7.92-4.792l51.88-12.96V208h272v62.248l51.88,12.96c3.152,0.792,5.848,2.512,7.92,4.792H384
			c-8.824,0-16,7.176-16,16v16c0,8.824,7.176,16,16,16h64v16h-96V248c0-13.232-10.768-24-24-24H168c-13.232,0-24,10.768-24,24v104
			H48V336z M88,320v-16h24v16H88z M448,304v16h-24v-16H448z M408,304v16h-24v-16H408z M160,320v-16h176v16H160z M336,336v16H160v-16
			H336z M160,288v-16h176v16H160z M160,256v-8c0-4.416,3.584-8,8-8h160c4.416,0,8,3.584,8,8v8H160z M96,472c0,4.416-3.584,8-8,8h-8
			v-16H64v16h-8c-4.416,0-8-3.584-8-8v-48h16v24h16v-24h16V472z M448,472c0,4.416-3.584,8-8,8h-8v-16h-16v16h-8
			c-4.416,0-8-3.584-8-8v-48h16v24h16v-24h16V472z M480,408H16v-40h464V408z"/>
	</g>
</g>
</svg>